<svg width="244" height="307" viewBox="0 0 244 307" fill="none" xmlns="http://www.w3.org/2000/svg">
<rect y="80" width="244" height="227" rx="33" fill="#11395D"/>
<path d="M1 113C1 95.3269 15.3269 81 33 81H211C228.673 81 243 95.3269 243 113V118H1V113Z" fill="#061C2F"/>
<path d="M243 118.5H243.5V118V113C243.5 95.0507 228.949 80.5 211 80.5H33C15.0507 80.5 0.5 95.0507 0.5 113V118V118.5H1H243Z" stroke="white" stroke-opacity="0.05"/>
<rect x="47" width="151" height="118" fill="#F9FAF5"/>
<rect x="66" y="68" width="28" height="5" fill="#ECE1D3"/>
<rect x="66" y="80" width="48" height="5" fill="#F0937E"/>
<rect x="66" y="88" width="48" height="5" fill="#F0937E"/>
<rect x="104" y="68" width="72" height="5" fill="#ECE1D3"/>
<rect x="122" y="88" width="54" height="5" fill="#ECE1D3"/>
<rect x="66" y="104" width="110" height="5" fill="#ECE1D3"/>
<path d="M70.6191 40.2812H69.1631V44H67.2422V34.0469H70.5781C71.1296 34.0469 71.6286 34.113 72.0752 34.2451C72.5218 34.3727 72.9046 34.5618 73.2236 34.8125C73.5381 35.0632 73.7796 35.3753 73.9482 35.749C74.1214 36.1227 74.208 36.5557 74.208 37.0479C74.208 37.4033 74.1647 37.7246 74.0781 38.0117C73.9961 38.2943 73.8776 38.5472 73.7227 38.7705C73.5632 38.9984 73.3717 39.1966 73.1484 39.3652C72.9297 39.5339 72.6836 39.6797 72.4102 39.8027L74.5498 43.9111V44H72.4922L70.6191 40.2812ZM69.1631 38.7227H70.585C70.8812 38.7227 71.141 38.6816 71.3643 38.5996C71.5921 38.513 71.7767 38.39 71.918 38.2305C72.0365 38.1029 72.1253 37.9502 72.1846 37.7725C72.2484 37.5947 72.2803 37.3965 72.2803 37.1777C72.2803 36.9134 72.2393 36.681 72.1572 36.4805C72.0798 36.2754 71.9613 36.1068 71.8018 35.9746C71.6605 35.8561 71.4873 35.765 71.2822 35.7012C71.0771 35.6374 70.8424 35.6055 70.5781 35.6055H69.1631V38.7227ZM81.7754 39.6387H77.6875V42.4482H82.4658V44H75.7598V34.0469H82.4453V35.6123H77.6875V38.1211H81.7754V39.6387ZM91.373 35.6123H88.3037V44H86.376V35.6123H83.3477V34.0469H91.373V35.6123ZM99.0977 34.0469L99.1045 40.6436C99.1045 41.1995 99.027 41.694 98.8721 42.127C98.7217 42.5599 98.5029 42.9245 98.2158 43.2207C97.9242 43.5215 97.5687 43.7493 97.1494 43.9043C96.7347 44.0592 96.2607 44.1367 95.7275 44.1367C95.2262 44.1367 94.7728 44.0592 94.3672 43.9043C93.9661 43.7493 93.6221 43.5238 93.335 43.2275C93.0479 42.9313 92.8245 42.5667 92.665 42.1338C92.5101 41.6963 92.4326 41.1995 92.4326 40.6436L92.4395 34.0469H94.3604L94.3672 40.6436C94.3717 40.9762 94.4036 41.2679 94.4629 41.5186C94.5267 41.7692 94.6201 41.9766 94.7432 42.1406C94.8571 42.291 94.9961 42.4049 95.1602 42.4824C95.3242 42.5553 95.5133 42.5918 95.7275 42.5918C95.96 42.5918 96.165 42.5531 96.3428 42.4756C96.5251 42.3936 96.6755 42.2728 96.7939 42.1133C96.9215 41.9492 97.0173 41.7441 97.0811 41.498C97.1449 41.252 97.179 40.9671 97.1836 40.6436L97.1904 34.0469H99.0977ZM104.252 40.2812H102.796V44H100.875V34.0469H104.211C104.762 34.0469 105.261 34.113 105.708 34.2451C106.155 34.3727 106.537 34.5618 106.856 34.8125C107.171 35.0632 107.412 35.3753 107.581 35.749C107.754 36.1227 107.841 36.5557 107.841 37.0479C107.841 37.4033 107.798 37.7246 107.711 38.0117C107.629 38.2943 107.51 38.5472 107.355 38.7705C107.196 38.9984 107.005 39.1966 106.781 39.3652C106.562 39.5339 106.316 39.6797 106.043 39.8027L108.183 43.9111V44H106.125L104.252 40.2812ZM102.796 38.7227H104.218C104.514 38.7227 104.774 38.6816 104.997 38.5996C105.225 38.513 105.41 38.39 105.551 38.2305C105.669 38.1029 105.758 37.9502 105.817 37.7725C105.881 37.5947 105.913 37.3965 105.913 37.1777C105.913 36.9134 105.872 36.681 105.79 36.4805C105.713 36.2754 105.594 36.1068 105.435 35.9746C105.293 35.8561 105.12 35.765 104.915 35.7012C104.71 35.6374 104.475 35.6055 104.211 35.6055H102.796V38.7227ZM115.846 44H113.932L111.163 37.5811V44H109.229V34.0469H111.163L113.911 40.4385L113.918 34.0469H115.846V44ZM128.144 40.3496V44H126.223V34.0469H129.627C130.169 34.0469 130.659 34.1266 131.097 34.2861C131.534 34.4411 131.908 34.6576 132.218 34.9355C132.523 35.2181 132.758 35.5553 132.922 35.9473C133.09 36.3392 133.175 36.7744 133.175 37.2529C133.175 37.6995 133.09 38.112 132.922 38.4902C132.758 38.8685 132.523 39.1943 132.218 39.4678C131.908 39.7458 131.534 39.9622 131.097 40.1172C130.659 40.2721 130.169 40.3496 129.627 40.3496H128.144ZM128.144 38.791H129.627C129.9 38.791 130.137 38.75 130.338 38.668C130.538 38.5859 130.707 38.4743 130.844 38.333C130.976 38.1917 131.074 38.0299 131.138 37.8477C131.206 37.6608 131.24 37.4671 131.24 37.2666C131.24 37.0342 131.206 36.8177 131.138 36.6172C131.074 36.4167 130.976 36.2412 130.844 36.0908C130.707 35.9404 130.538 35.8219 130.338 35.7354C130.137 35.6488 129.9 35.6055 129.627 35.6055H128.144V38.791ZM141.453 39.7549C141.453 40.1833 141.414 40.5911 141.337 40.9785C141.259 41.3613 141.148 41.7168 141.002 42.0449C140.847 42.373 140.656 42.6738 140.428 42.9473C140.2 43.2207 139.94 43.4486 139.648 43.6309C139.384 43.7904 139.092 43.9134 138.773 44C138.459 44.0911 138.119 44.1367 137.755 44.1367C137.368 44.1367 137.01 44.0866 136.682 43.9863C136.354 43.8861 136.055 43.7448 135.786 43.5625C135.522 43.3711 135.285 43.141 135.075 42.8721C134.866 42.5986 134.69 42.291 134.549 41.9492C134.421 41.6348 134.323 41.293 134.255 40.9238C134.191 40.5547 134.159 40.165 134.159 39.7549V38.3057C134.159 37.8682 134.196 37.4535 134.269 37.0615C134.346 36.6696 134.458 36.3073 134.604 35.9746C134.745 35.6602 134.916 35.3753 135.116 35.1201C135.321 34.8649 135.556 34.6462 135.82 34.4639C136.08 34.2861 136.372 34.1494 136.695 34.0537C137.019 33.958 137.37 33.9102 137.748 33.9102C138.131 33.9102 138.489 33.9603 138.821 34.0605C139.159 34.1562 139.462 34.2952 139.73 34.4775C139.999 34.6507 140.234 34.8604 140.435 35.1064C140.64 35.3525 140.815 35.6237 140.961 35.9199C141.12 36.2572 141.241 36.6263 141.323 37.0273C141.41 37.4284 141.453 37.8545 141.453 38.3057V39.7549ZM139.505 38.292C139.505 38.0368 139.491 37.7952 139.464 37.5674C139.441 37.335 139.402 37.1208 139.348 36.9248C139.279 36.6787 139.188 36.46 139.074 36.2686C138.96 36.0726 138.826 35.9131 138.671 35.79C138.548 35.6989 138.409 35.6283 138.254 35.5781C138.104 35.528 137.935 35.5029 137.748 35.5029C137.57 35.5029 137.409 35.5257 137.263 35.5713C137.121 35.6169 136.994 35.6829 136.88 35.7695C136.725 35.8971 136.593 36.0566 136.483 36.248C136.379 36.4395 136.297 36.6628 136.237 36.918C136.192 37.1139 136.158 37.3281 136.135 37.5605C136.117 37.793 136.107 38.0368 136.107 38.292V39.7549C136.107 39.9964 136.117 40.2288 136.135 40.4521C136.153 40.6755 136.185 40.8828 136.23 41.0742C136.281 41.3158 136.354 41.5368 136.449 41.7373C136.549 41.9333 136.666 42.0928 136.798 42.2158C136.921 42.3252 137.06 42.4095 137.215 42.4688C137.374 42.528 137.554 42.5576 137.755 42.5576C137.946 42.5576 138.122 42.5303 138.281 42.4756C138.441 42.4209 138.582 42.3411 138.705 42.2363C138.86 42.1087 138.99 41.9492 139.095 41.7578C139.204 41.5618 139.291 41.3408 139.354 41.0947C139.405 40.9033 139.441 40.6937 139.464 40.4658C139.491 40.238 139.505 40.001 139.505 39.7549V38.292ZM149.827 40.8828C149.795 41.3841 149.686 41.8353 149.499 42.2363C149.317 42.6374 149.071 42.9792 148.761 43.2617C148.451 43.5443 148.082 43.763 147.653 43.918C147.225 44.0684 146.751 44.1436 146.231 44.1436C145.821 44.1436 145.441 44.0911 145.09 43.9863C144.743 43.877 144.431 43.722 144.153 43.5215C143.898 43.3346 143.67 43.109 143.47 42.8447C143.274 42.5804 143.107 42.2887 142.971 41.9697C142.839 41.6507 142.736 41.2998 142.663 40.917C142.595 40.5342 142.561 40.1286 142.561 39.7002V38.3604C142.561 37.9593 142.592 37.5788 142.656 37.2188C142.72 36.8542 142.816 36.5169 142.943 36.207C143.089 35.8288 143.281 35.4915 143.518 35.1953C143.755 34.8991 144.023 34.6484 144.324 34.4434C144.593 34.2702 144.887 34.138 145.206 34.0469C145.53 33.9512 145.876 33.9033 146.245 33.9033C146.792 33.9033 147.277 33.9808 147.701 34.1357C148.13 34.2907 148.494 34.5117 148.795 34.7988C149.096 35.0859 149.333 35.4368 149.506 35.8516C149.679 36.2663 149.788 36.7334 149.834 37.2529H147.92C147.902 36.9567 147.856 36.6969 147.783 36.4736C147.715 36.2503 147.615 36.0635 147.482 35.9131C147.346 35.7673 147.175 35.6579 146.97 35.585C146.769 35.5075 146.528 35.4688 146.245 35.4688C146.095 35.4688 145.953 35.4847 145.821 35.5166C145.694 35.5485 145.575 35.5964 145.466 35.6602C145.279 35.7695 145.119 35.9268 144.987 36.1318C144.86 36.3324 144.757 36.5671 144.68 36.8359C144.62 37.0456 144.577 37.278 144.55 37.5332C144.522 37.7839 144.509 38.055 144.509 38.3467V39.7002C144.509 40.0967 144.529 40.4521 144.57 40.7666C144.616 41.0765 144.684 41.3477 144.775 41.5801C144.839 41.7396 144.914 41.8809 145.001 42.0039C145.092 42.127 145.195 42.2295 145.309 42.3115C145.432 42.4027 145.568 42.471 145.719 42.5166C145.874 42.5576 146.045 42.5781 146.231 42.5781C146.482 42.5781 146.708 42.5462 146.908 42.4824C147.109 42.4186 147.28 42.3184 147.421 42.1816C147.562 42.0449 147.674 41.8695 147.756 41.6553C147.838 41.4411 147.888 41.1836 147.906 40.8828H149.827ZM154.291 39.9121L153.238 41.0674V44H151.311V34.0469H153.238V38.6064L154.141 37.3896L156.561 34.0469H158.912L155.562 38.4492L159.035 44H156.752L154.291 39.9121ZM165.857 39.6387H161.77V42.4482H166.548V44H159.842V34.0469H166.527V35.6123H161.77V38.1211H165.857V39.6387ZM175.455 35.6123H172.386V44H170.458V35.6123H167.43V34.0469H175.455V35.6123Z" fill="#1B1B1B"/>
<path fill-rule="evenodd" clip-rule="evenodd" d="M122 307V175V120H206H211H244V153V175V274C244 292.225 229.225 307 211 307H206H122Z" fill="#0E3455"/>
<path fill-rule="evenodd" clip-rule="evenodd" d="M0 274V142V120H84H122V175V307H84H33C14.7746 307 0 292.225 0 274Z" fill="#11395D"/>
</svg>
