<svg width="393" height="532" viewBox="0 0 393 532" fill="none" xmlns="http://www.w3.org/2000/svg">
<g filter="url(#filter0_d_1_782)">
<path fill-rule="evenodd" clip-rule="evenodd" d="M26.1799 34.9202C24 39.1984 24 44.7989 24 56V492H34C34 487.029 38.0294 483 43 483C47.9706 483 52 487.029 52 492H60C60 487.029 64.0294 483 69 483C73.9706 483 78 487.029 78 492H86C86 487.029 90.0294 483 95 483C99.9706 483 104 487.029 104 492H112C112 487.029 116.029 483 121 483C125.971 483 130 487.029 130 492H138C138 487.029 142.029 483 147 483C151.971 483 156 487.029 156 492H164C164 487.029 168.029 483 173 483C177.971 483 182 487.029 182 492H190C190 487.029 194.029 483 199 483C203.971 483 208 487.029 208 492H216C216 487.029 220.029 483 225 483C229.971 483 234 487.029 234 492H242C242 487.029 246.029 483 251 483C255.971 483 260 487.029 260 492H268C268 487.029 272.029 483 277 483C281.971 483 286 487.029 286 492H294C294 487.029 298.029 483 303 483C307.971 483 312 487.029 312 492H320C320 487.029 324.029 483 329 483C333.971 483 338 487.029 338 492H346C346 487.029 350.029 483 355 483C359.971 483 364 487.029 364 492H369V56C369 44.799 369 39.1984 366.82 34.9202C364.903 31.1569 361.843 28.0973 358.08 26.1799C353.802 24 348.201 24 337 24H56C44.799 24 39.1984 24 34.9202 26.1799C31.1569 28.0973 28.0973 31.1569 26.1799 34.9202Z" fill="white"/>
</g>
<defs>
<filter id="filter0_d_1_782" x="-8" y="0" width="409" height="532" filterUnits="userSpaceOnUse" color-interpolation-filters="sRGB">
<feFlood flood-opacity="0" result="BackgroundImageFix"/>
<feColorMatrix in="SourceAlpha" type="matrix" values="0 0 0 0 0 0 0 0 0 0 0 0 0 0 0 0 0 0 127 0" result="hardAlpha"/>
<feOffset dy="8"/>
<feGaussianBlur stdDeviation="16"/>
<feComposite in2="hardAlpha" operator="out"/>
<feColorMatrix type="matrix" values="0 0 0 0 0.4 0 0 0 0 0.4 0 0 0 0 0.4 0 0 0 0.16 0"/>
<feBlend mode="normal" in2="BackgroundImageFix" result="effect1_dropShadow_1_782"/>
<feBlend mode="normal" in="SourceGraphic" in2="effect1_dropShadow_1_782" result="shape"/>
</filter>
</defs>
</svg>
